SplineFontDB: 2.0
FontName: greciliae-base
FullName: greciliae
FamilyName: greciliae
Weight: Medium
Copyright: greciliae font, adapted with fontforge by Elie Roux\nCopyright (C) 2007 Matthew Spencer\nwith Reserved Font Name Caeciliae\n\nThis Font Software is licensed under the SIL Open Font License, Version 1.1.\n\nThis license is available with a FAQ at: http://scripts.sil.org/OFL
UComments: "2007-4-12: Created." 
Version: 1.2
ItalicAngle: 0
UnderlinePosition: -204
UnderlineWidth: 102
Ascent: 800
Descent: 200
NeedsXUIDChange: 1
XUID: [1021 341 828717519 15204965]
OS2Version: 0
OS2_WeightWidthSlopeOnly: 0
OS2_UseTypoMetrics: 1
CreationTime: 1176402534
ModificationTime: 1208943231
OS2TypoAscent: 0
OS2TypoAOffset: 1
OS2TypoDescent: 0
OS2TypoDOffset: 1
OS2TypoLinegap: 0
OS2WinAscent: 0
OS2WinAOffset: 1
OS2WinDescent: 0
OS2WinDOffset: 1
HheadAscent: 0
HheadAOffset: 1
HheadDescent: 0
HheadDOffset: 1
OS2Vendor: 'PfEd'
DEI: 0
Encoding: Custom
UnicodeInterp: none
NameList: Adobe Glyph List
DisplaySize: -96
AntiAlias: 1
FitToEm: 1
WinInfo: 36 12 6
TeXData: 1 0 0 346030 173015 115343 0 1048576 115343 783286 444596 497025 792723 393216 433062 380633 303038 157286 324010 404750 52429 2506097 1059062 262144
BeginChars: 343 343

StartChar: _0017
Encoding: 0 66 0
Width: 166
VWidth: 2612
Flags: HW
HStem: -409 15 -94 15 221 15 536 15
Fore
82.3496 169.7 m 4
 138.25 169.7 166 153.667 166 121.6 c 6
 166 -35.7002 l 5
 147.8 -17.5 120.268 -8.40039 83 -8.40039 c 4
 44.8672 -8.40039 18.2002 -17.5 0 -35.7002 c 5
 0 121.6 l 6
 0 153.667 26.4502 169.7 82.3496 169.7 c 4
EndSplineSet
EndChar

StartChar: _0019
Encoding: 1 67 1
Width: 166
VWidth: 2612
Flags: HW
HStem: -409 15 -94 15 221 15 536 15
Fore
0 64.8496 m 5
 83.2002 190.95 l 5
 166.4 64.8496 l 5
 83.2002 -59.9502 l 5
 0 64.8496 l 5
EndSplineSet
EndChar

StartChar: _0020
Encoding: 2 68 2
Width: 163
VWidth: 2686
Flags: HW
HStem: -409 15 -94 15 221 15 536 15
Fore
81.9004 194.199 m 5
 88.833 172.532 102.268 149.133 122.2 124 c 6
 162.5 72 l 5
 137.8 26.5 l 6
 110.933 -20.3008 79.7324 -48.4678 44.2002 -58 c 5
 52 -51.9336 55.9004 -43.7002 55.9004 -33.3008 c 4
 55.9004 -18.5674 47.4678 0.796875 31.2002 25.1992 c 6
 0 72 l 5
 81.9004 194.199 l 5
EndSplineSet
EndChar

StartChar: _0026
Encoding: 3 69 3
Width: 166
VWidth: 2496
Flags: HW
HStem: -409 15 -94 15 221 15 536 15
Fore
0 -4 m 6
 0 139 l 5
 6.5 114.301 20.3994 87.0996 36 87.0996 c 0
 51.5996 87.0996 56.7998 116.35 59.3994 165.1 c 1
 69.7998 129.35 76.7324 109.2 95.7998 109.2 c 0
 110.532 109.2 113.35 151.45 116.6 180.7 c 1
 124.399 148.2 130.032 123.5 141.3 123.5 c 0
 151.7 123.5 160.8 164.45 166 202.8 c 1
 166 36.4004 l 2
 166 18.1191 160.8 -7.7998 150.399 -7.7998 c 0
 139.133 -7.7998 135.45 0.650391 128.3 22.0996 c 1
 125.7 -5.2002 114.867 -32.5 98.3994 -32.5 c 0
 81.0674 -32.5 71.0996 -20.1504 56.7998 3.90039 c 1
 50.2998 -24.0498 41.6328 -46.7998 26.8994 -46.7998 c 0
 8.7002 -46.7998 0 -23.8311 0 -4 c 6
EndSplineSet
EndChar

StartChar: _0028
Encoding: 4 70 4
Width: 168
VWidth: 2612
Flags: HW
HStem: -409 15 -94 15 221 15 536 15
Fore
39.7998 -30.1504 m 4
 8.59961 -30.1504 0 -6.01953 0 20.5 c 6
 0 197 l 5
 0 174.771 8.59961 146.65 39.7998 146.65 c 4
 70.1924 146.65 97.5713 179.15 128.2 179.15 c 4
 151.6 179.15 168 166.609 168 128 c 6
 168 -48.5 l 5
 168 -23.0293 157.816 3.65039 128.2 3.65039 c 4
 99.4707 3.65039 66.3203 -30.1504 39.7998 -30.1504 c 4
EndSplineSet
EndChar

StartChar: _0027
Encoding: 5 71 5
Width: 166
VWidth: 2537
Flags: HW
HStem: -409 15 -94 15 221 15 536 15
Fore
127.2 139.65 m 4
 156.411 139.65 166.2 164.545 166.2 190.35 c 5
 166.2 13.5498 l 6
 166.2 -12.9697 158.4 -37.1504 127.2 -37.1504 c 4
 106.136 -37.1504 61.2451 -3.34961 38.7998 -3.34961 c 4
 9.08496 -3.34961 -0.200195 -29.9844 -0.200195 -55.3496 c 5
 -0.200195 121.45 l 6
 -0.200195 160.06 15.4004 172.15 38.7998 172.15 c 4
 61.2793 172.15 106.118 139.65 127.2 139.65 c 4
EndSplineSet
EndChar

StartChar: _0006
Encoding: 6 72 6
Width: 162
VWidth: 2587
Flags: HW
HStem: -409 15 -94 15 221 15 536 15
Fore
45.9746 190.05 m 5
 108.245 190.05 161.675 147.151 161.675 118.551 c 4
 161.675 5.88379 161.242 -50.4492 160.375 -50.4492 c 4
 96.2422 -50.4492 44.6748 -30.082 5.6748 10.6514 c 5
 1.77539 109.452 -0.174805 201.185 -0.174805 285.848 c 4
 -0.174805 314.067 0.0419922 341.502 0.474609 368.151 c 4
 0.474609 386.351 4.80762 395.451 13.4746 395.451 c 4
 20.4082 395.451 23.875 386.784 23.875 369.451 c 6
 21.2754 73.0508 l 5
 56.8076 33.1836 90.6074 13.251 122.675 13.251 c 4
 138.275 13.251 146.075 21.0508 146.075 36.6514 c 4
 146.075 64.7314 136.428 79.0947 90.1748 106.85 c 6
 45.9746 131.55 l 5
 45.9746 190.05 l 5
EndSplineSet
EndChar

StartChar: queue
Encoding: 7 153 7
Width: 18
VWidth: 2048
Flags: HW
HStem: -409 15 -94 15 221 15 536 15
Fore
0 -165.5 m 9
 0 -5 l 25
 18 -5 l 25
 18 -155 l 17
 16 -164 10 -165 0 -165.5 c 9
EndSplineSet
EndChar

StartChar: _0032
Encoding: 8 74 8
Width: 116
VWidth: 2649
Flags: HW
HStem: -409 15 -94 15 221 15 536 15
Fore
57.7998 140.065 m 5
 116.039 51.7959 l 5
 57.7998 -35.5645 l 5
 -0.439453 51.7959 l 5
 57.7998 140.065 l 5
EndSplineSet
EndChar

StartChar: _0011
Encoding: 9 75 9
Width: 19
VWidth: 2048
Flags: HW
Validated: 1
HStem: -409 15 -94 15 221 15 536 15
Fore
0 550.999 m 29
 19 551 l 25
 19 -408.997 l 25
 0 -409.002 l 25
 0 550.999 l 29
EndSplineSet
EndChar

StartChar: _0008
Encoding: 10 76 10
Width: 143
VWidth: 2418
Flags: HW
HStem: -409 15 -94 15 221 15 536 15
Fore
-6.4502 595.15 m 4
 -6.4502 639.87 22.1826 651.05 54.6504 651.05 c 4
 81.2305 651.05 143.05 627.467 143.05 527.55 c 4
 143.05 437.417 89.75 380.217 -16.8496 355.95 c 5
 -19.1338 358.234 -22.0498 368.296 -22.0498 371.55 c 4
 -22.0498 373.283 -21.6172 374.583 -20.75 375.45 c 5
 51.1826 407.518 87.1504 445.65 87.1504 489.85 c 4
 87.1504 551.21 49.4326 560.818 16.9502 566.55 c 4
 1.34961 568.283 -6.4502 577.817 -6.4502 595.15 c 4
EndSplineSet
EndChar

StartChar: _0001
Encoding: 11 77 11
Width: 166
VWidth: 2575
Flags: HW
HStem: -409 15 -94 15 221 15 536 15
Fore
107.7 -47.5996 m 4
 42.96 -47.5996 -0.200195 -2.36035 -0.200195 65.5 c 6
 -0.200195 391.8 l 6
 -0.200195 460.022 42.6357 503.6 107.7 503.6 c 4
 154.5 503.6 166.2 469.28 166.2 446.4 c 6
 166.2 267 l 5
 155.8 276.1 l 6
 138.854 290.928 110.484 304.7 81.7002 304.7 c 4
 42.8398 304.7 10.2002 272.13 10.2002 229.3 c 4
 10.2002 186.519 42.9111 152.6 81.7002 152.6 c 4
 111.34 152.6 139.125 165.308 155.8 179.9 c 6
 166.2 190.3 l 5
 166.2 9.59961 l 6
 166.2 -24.7207 142.8 -47.5996 107.7 -47.5996 c 4
EndSplineSet
EndChar

StartChar: _0023
Encoding: 12 78 12
Width: 166
VWidth: 2637
Flags: HW
HStem: -409 15 -94 15 221 15 536 15
Fore
154.7 -248.1 m 5
 162.5 -246.367 166.4 -239.433 166.4 -227.3 c 6
 166.4 125 l 6
 166.4 157.067 138.45 173.1 82.5498 173.1 c 4
 26.6504 173.1 0 157.067 0 125 c 6
 0 -32.2998 l 5
 17.333 -14.9668 44.2002 -6.2998 83.2002 -6.2998 c 4
 110.067 -6.2998 131.733 -13.667 148.2 -28.4004 c 5
 148.2 -201.3 l 6
 148.2 -246.54 149.5 -248.1 154.7 -248.1 c 5
EndSplineSet
EndChar

StartChar: _0025
Encoding: 13 79 13
Width: 166
VWidth: 2637
Flags: HW
HStem: -409 15 -94 15 221 15 536 15
Fore
11.2998 -251.1 m 5
 16.5 -251.1 17.7998 -249.54 17.7998 -204.3 c 6
 17.7998 -31.4004 l 5
 34.2666 -16.667 55.9326 -9.2998 82.7998 -9.2998 c 4
 121.8 -9.2998 148.667 -17.9668 166 -35.2998 c 5
 166 122 l 6
 166 154.067 139.35 170.1 83.4502 170.1 c 4
 27.5498 170.1 -0.400391 154.067 -0.400391 122 c 6
 -0.400391 -230.3 l 6
 -0.400391 -242.433 3.5 -249.367 11.2998 -251.1 c 5
EndSplineSet
EndChar

StartChar: _0009
Encoding: 14 73 14
AltUni2: 000050.ffffffff.0
Width: 19
VWidth: 2048
Flags: HW
Validated: 1
HStem: -409 15 -94 15 221 15 536 15
Fore
0 359.128 m 9
 0 719.984 l 29
 18.999 720.021 l 25
 19 352.431 l 17
 6.04348 352.565 2.43478 355.609 0 359.128 c 9
EndSplineSet
EndChar

StartChar: _0010
Encoding: 15 81 15
Width: 19
VWidth: 2048
Flags: HW
Validated: 1
HStem: -409 15 -94 15 221 15 536 15
Fore
0 -296.375 m 9
 0 383.125 l 21
 3.87305 385.802 10.75 386.375 19 386.5 c 9
 19 -293.375 l 17
 14.875 -293.5 5 -293.375 0 -296.375 c 9
EndSplineSet
EndChar

StartChar: _0024
Encoding: 16 83 16
Width: 167
VWidth: 2613
Flags: HW
HStem: -409 15 -94 15 221 15 536 15
Fore
12.2998 -375.3 m 1
 4.5 -372.7 0.599609 -365.767 0.599609 -354.5 c 2
 0.599609 120 l 2
 0.599609 152.067 28.5498 168.1 84.4502 168.1 c 0
 140.35 168.1 167 152.067 167 120 c 2
 167 -37.2998 l 1
 149.667 -19.9668 122.8 -11.2998 83.7998 -11.2998 c 0
 56.9326 -11.2998 35.2666 -18.667 18.7998 -33.3994 c 1
 18.7998 -328.5 l 2
 18.7998 -373.74 17.5 -375.3 12.2998 -375.3 c 1
EndSplineSet
EndChar

StartChar: pesdeminutus
Encoding: 17 84 17
Width: 166
VWidth: 2684
Flags: HW
HStem: -409 15 -94 15 221 15 536 15
Fore
166.2 -0.0498047 m 5
 139.365 -55.9561 46.9414 -57.252 35.9141 -57.252 c 6
 34.9004 -57.25 l 6
 11.5 -57.25 -0.200195 -45.9824 -0.200195 -23.4492 c 6
 -0.200195 150.75 l 5
 6.7334 138.617 21.0332 132.551 42.7002 132.551 c 4
 65.8945 132.551 120.304 137.428 148.004 170.001 c 5
 148 201.667 148 161.333 148.007 193.993 c 5
 182 194 131.667 194.333 166 194.001 c 5
 166.2 -0.0498047 l 5
EndSplineSet
EndChar

StartChar: auctusd1
Encoding: 18 85 18
Width: 166
VWidth: 2689
Flags: HW
HStem: -409 15 -94 15 221 15 536 15
Fore
166.2 -71.1006 m 1
 152.326 -17.3398 69.7139 -7.40039 42.7012 -7.40039 c 0
 21.0342 -7.40039 6.93359 -13.9004 0 -26.9004 c 1
 0 199.5 l 2
 0 199.5 -5.40039 199 18 199 c 0
 18.0791 199 18 211.5 18 180 c 1
 23 181 35.5557 181.102 35.7812 181.102 c 0
 46.873 181.102 140.257 180.107 166.2 123.899 c 1
 166.2 -71.1006 l 1
EndSplineSet
EndChar

StartChar: auctusa1
Encoding: 19 86 19
Width: 166
VWidth: 2421
Flags: HW
HStem: -409 15 -94 15 221 15 536 15
Fore
166.4 4.39941 m 1
 139.565 -51.5068 47.1416 -52.8027 36.1143 -52.8027 c 2
 35.1006 -52.8008 l 2
 11.7002 -52.8008 0 -41.5332 0 -19 c 2
 0 156 l 1
 14.5 155.75 4.5 156 18 156 c 1
 18 147.5 17.75 150.25 18 140.5 c 1
 24.6963 138.133 33.3294 137 42.9004 137 c 0
 70.9697 137 153.049 147.293 166.4 200.699 c 1
 166.4 4.39941 l 1
EndSplineSet
EndChar

StartChar: mdeminutus
Encoding: 20 87 20
Width: 197
VWidth: 2048
Flags: HW
HStem: -409 15 -94 15 221 15 536 15
Fore
197.001 111.337 m 13
 197 -69.999 l 25
 188.42 -69.999 175 -69.999 175 -69.999 c 0
 152.667 -22.001 88.0029 -6.33105 55.334 -5.33301 c 0
 46.6738 -5.06836 29 -8.5 21.9971 -21.5 c 0
 21.9971 -21.5 8.5791 -21.5 0 -21.5 c 25
 0.000976562 164.002 l 5
 11.001 169.002 16.1465 173.522 38 174 c 4
 106.5 175.5 167.021 145.665 197.001 111.337 c 13
EndSplineSet
EndChar

StartChar: _0007
Encoding: 21 88 21
Width: 118
VWidth: 2536
Flags: HW
HStem: -409 15 -94 15 221 15 536 15
Fore
0.5 690.85 m 5
 4.83301 692.583 9.38184 693.45 14.1484 693.45 c 4
 18.916 693.45 23.4658 692.583 27.7988 690.85 c 5
 27.7988 594.65 l 5
 26.499 530.95 l 5
 58.999 536.15 l 6
 77.1992 539.617 92.7988 541.35 105.799 541.35 c 4
 110.132 541.35 112.731 539.183 113.599 534.85 c 6
 117.499 150.05 l 5
 114.032 145.717 110.132 143.55 105.799 143.55 c 4
 104.308 143.55 93.1113 147.294 90.2002 148.75 c 5
 91.0674 149.617 91.5 185.15 91.5 255.35 c 6
 91.5 304.75 l 5
 13.5 291.75 l 5
 7.43262 292.617 3.9668 296.083 3.10059 302.15 c 6
 3.10059 443.85 l 5
 1.7998 575.15 l 5
 0.5 668.75 l 5
 0.5 690.85 l 5
94.0986 482.85 m 5
 26.499 472.45 l 6
 25.6318 472.45 25.1992 432.15 25.1992 351.55 c 5
 94.0986 363.25 l 5
 94.0986 482.85 l 5
EndSplineSet
EndChar

StartChar: _0002
Encoding: 22 89 22
Width: 322
VWidth: 2503
Flags: HW
HStem: -409 15 -94 15 221 15 536 15
Fore
267.802 -33.6006 m 4
 205.75 -33.6006 163.8 10.6338 163.8 75.5996 c 6
 163.8 383.7 l 6
 163.8 448.827 205.746 491.6 267.8 491.6 c 4
 303.022 491.6 322.4 472.09 322.4 438.3 c 6
 322.4 266.7 l 5
 306.113 280.659 282.568 301.8 244.401 301.8 c 4
 202.281 301.8 174.201 268.194 174.201 230.95 c 4
 174.201 192.975 202.078 157.5 244.401 157.5 c 4
 291.463 157.5 322.394 192.596 322.401 192.6 c 5
 322.401 21 l 6
 322.401 -12.0605 301.638 -33.6006 267.802 -33.6006 c 4
133.9 -63.5 m 4
 130 -63.5 127.4 -62.0703 127.4 -53.1006 c 6
 127.4 136.7 l 5
 113.533 150.567 94.4668 157.5 70.2002 157.5 c 4
 40.7334 157.5 17.333 151 0 138 c 5
 0 283.6 l 6
 0 313.933 23.6172 329.1 70.8496 329.1 c 4
 118.083 329.1 141.7 313.933 141.7 283.6 c 6
 141.7 -38.7998 l 6
 141.7 -54.4004 139.1 -62.6328 133.9 -63.5 c 4
EndSplineSet
EndChar

StartChar: _0063
Encoding: 23 90 23
Width: 73
VWidth: 2463
Flags: HW
HStem: -409 15 -94 15 221 15 536 15
Fore
57.2002 -15.2002 m 1
 28.5049 -15.2002 17.624 -18.376 0 -36 c 1
 0 143.399 l 2
 0 173.04 34.4521 188.374 72.8008 192.8 c 1
 72.8008 -337.601 l 2
 72.8008 -354.067 69.7676 -364.9 63.7002 -370.101 c 1
 59.3672 -370.101 57.2002 -363.168 57.2002 -349.301 c 2
 57.2002 -15.2002 l 1
EndSplineSet
EndChar

StartChar: _0064
Encoding: 24 91 24
Width: 73
VWidth: 2412
Flags: HW
HStem: -409 15 -94 15 221 15 536 15
Fore
57.2002 -25.2002 m 1
 28.5049 -25.2002 17.624 -28.376 0 -46 c 1
 0 133.4 l 2
 0 163.04 34.4512 178.38 72.8008 182.8 c 1
 72.8008 -233.2 l 2
 72.8008 -249.667 70.2002 -260.5 65 -265.7 c 1
 64.4531 -265.883 63.9355 -265.974 63.4453 -265.974 c 0
 59.2822 -265.974 57.2002 -259.383 57.2002 -246.2 c 2
 57.2002 -25.2002 l 1
EndSplineSet
EndChar

StartChar: _0060
Encoding: 25 92 25
Width: 73
VWidth: 2609
Flags: HW
HStem: 854.5 15 539.5 15 224.5 15 -90.5 15
Fore
72.7979 -49.4014 m 1
 41.3506 -44.5635 0 -33.1045 0 0 c 2
 0 179.4 l 1
 17.7363 163.274 28.2617 158.6 57.1992 158.6 c 1
 57.1992 486.2 l 2
 57.1992 505.267 59.7998 514.8 65 514.8 c 0
 65.3398 514.83 65.6709 514.846 65.9932 514.846 c 0
 71.8838 514.846 74.8291 509.691 74.8291 499.382 c 0
 74.8291 494.439 74.1533 488.312 72.7979 480.999 c 1
 72.7979 -49.4014 l 1
EndSplineSet
EndChar

StartChar: _0061
Encoding: 26 93 26
Width: 74
VWidth: 2660
Flags: HW
HStem: 957.5 15 642.5 15 327.5 15 12.5 15
Fore
72.7979 -49.4004 m 5
 41.3506 -44.5605 0 -33.1045 0 0 c 6
 0 179.399 l 5
 17.7363 163.274 28.2607 158.6 57.1982 158.6 c 5
 57.1982 379.6 l 6
 57.1982 392.65 59.501 399.176 64.1074 399.176 c 4
 64.3955 399.176 64.6924 399.15 64.998 399.1 c 4
 70.1982 398.232 72.7979 387.399 72.7979 366.6 c 6
 72.7979 -49.4004 l 5
EndSplineSet
EndChar

StartChar: base2
Encoding: 27 94 27
Width: 166
VWidth: 2612
Flags: HW
HStem: -409 15 -94 15 221 15 536 15
Fore
83.6504 168.367 m 4
 139.55 168.367 166 152.334 166 120.267 c 6
 166 -43.333 l 5
 154 -43.333 160.667 -43.333 148 -43.333 c 5
 148 -29.166 148 -35.833 148 -23.5195 c 5
 131.405 -14.3281 110.098 -9.7334 83 -9.7334 c 4
 45.7324 -9.7334 18.2002 -18.833 0 -37.0332 c 5
 0 120.267 l 6
 0 152.334 27.75 168.367 83.6504 168.367 c 4
EndSplineSet
EndChar

StartChar: base4
Encoding: 28 95 28
Width: 166
VWidth: 2612
Flags: HW
HStem: -409 15 -94 15 221 15 536 15
Fore
82.3496 168.367 m 4
 138.25 168.367 166 152.334 166 120.267 c 6
 166 -37.0332 l 5
 147.8 -18.833 120.268 -9.7334 83 -9.7334 c 4
 55.9023 -9.7334 34.5947 -14.3281 18 -23.5195 c 5
 18 -35.833 18 -29.166 18 -43.333 c 5
 5.33333 -43.3333 12 -43.333 -0 -43.333 c 5
 -0 120.267 l 6
 -0 152.334 26.4502 168.367 82.3496 168.367 c 4
EndSplineSet
EndChar

StartChar: base7
Encoding: 29 96 29
Width: 166
VWidth: 2612
Flags: HW
HStem: -409 15 -94 15 221 15 536 15
Fore
82.3496 167.7 m 4
 138.25 167.7 166 151.667 166 119.6 c 6
 166 -37.7002 l 5
 147.8 -19.5 120.268 -10.4004 83 -10.4004 c 4
 44.8672 -10.4004 18.2002 -19.5 0 -37.7002 c 5
 0 173 l 6
 0 173 6 173 18 173 c 5
 18.5 161.5 18 171.705 18 158 c 5
 26 162 52.8395 167.7 82.3496 167.7 c 4
EndSplineSet
EndChar

StartChar: base5
Encoding: 30 97 30
Width: 166
VWidth: 2612
Flags: HW
HStem: -409 15 -94 15 221 15 536 15
Fore
83.6504 167.7 m 4
 113.16 167.7 140 162 148 158 c 5
 148 171.705 147.5 161.5 148 173 c 5
 160 173 166 173 166 173 c 6
 166 -37.7002 l 5
 147.8 -19.5 121.133 -10.4004 83 -10.4004 c 4
 45.7324 -10.4004 18.2002 -19.5 0 -37.7002 c 5
 0 119.6 l 6
 0 151.667 27.75 167.7 83.6504 167.7 c 4
EndSplineSet
EndChar

StartChar: base3
Encoding: 31 98 31
Width: 166
VWidth: 2612
Flags: HW
HStem: -409 15 -94 15 221 15 536 15
Fore
82.3496 168.367 m 4
 138.25 168.367 166 152.334 166 120.267 c 6
 166 -42 l 5
 157 -42 158.5 -42 148 -42 c 5
 148 -29 148 -34 148 -23.6039 c 5
 131.182 -14.3568 109.564 -9.7334 83 -9.7334 c 4
 55.9023 -9.7334 34.5947 -14.3281 18 -23.5195 c 5
 18 -35.833 18 -29.166 18 -43.333 c 5
 5.33333 -43.3333 12 -43.333 -0 -43.333 c 5
 -0 120.267 l 6
 -0 152.334 26.4502 168.367 82.3496 168.367 c 4
EndSplineSet
EndChar

StartChar: base6
Encoding: 32 99 32
Width: 166
VWidth: 2612
Flags: HW
HStem: -409 15 -94 15 221 15 536 15
Fore
83.6504 167.7 m 0
 113.16 167.7 140 162 148 158 c 1
 148 171.705 147.5 161.5 148 173 c 1
 160 173 166 173 166 173 c 2
 166 -37.7002 l 1
 147.8 -19.5 121.133 -10.4004 83 -10.4004 c 0
 45.7324 -10.4004 18.2002 -19.5 0 -37.7002 c 1
 0 175.5 l 2
 0 175.5 4 175 18 175.5 c 1
 18 167 18 169.5 18 153.906 c 1
 31.8512 163.102 53.7142 167.7 83.6504 167.7 c 0
EndSplineSet
EndChar

StartChar: line2
Encoding: 33 100 33
Width: 18
VWidth: 2048
Flags: HW
HStem: -409 15 -94 15 221 15 536 15
Fore
0 -12 m 25
 0 146 l 25
 18 146 l 25
 18 -12 l 25
 0 -12 l 25
EndSplineSet
EndChar

StartChar: line3
Encoding: 34 101 34
Width: 18
VWidth: 2048
Flags: HW
HStem: -420 15 -106 15 210 15 524 15
Fore
0 -12 m 25
 0 300 l 29
 18 300 l 29
 18 -12 l 25
 0 -12 l 25
EndSplineSet
EndChar

StartChar: line4
Encoding: 35 102 35
Width: 18
VWidth: 2048
Flags: HW
HStem: -420 15 -106 15 210 15 524 15
Fore
0 -12 m 25
 0 443 l 29
 18 443 l 29
 18 -12 l 25
 0 -12 l 25
EndSplineSet
EndChar

StartChar: line5
Encoding: 36 103 36
Width: 18
VWidth: 2048
Flags: HW
HStem: -420 15 -106 15 210 15 524 15
Fore
0 -12 m 25
 0 605 l 29
 18 605 l 29
 18 -12 l 25
 0 -12 l 25
EndSplineSet
EndChar

StartChar: vsbase
Encoding: 37 104 37
Width: 166
VWidth: 2637
Flags: HW
HStem: -409 15 -94 15 221 15 536 15
Fore
11.7002 -252.1 m 5
 3.90039 -250.367 0 -243.433 0 -231.3 c 6
 0 121 l 6
 0 153.067 27.9502 169.1 83.8506 169.1 c 4
 139.75 169.1 166 153.067 166 121 c 6
 166 -53 l 5
 150.333 -53 157.989 -53.0137 148 -53 c 5
 147.989 -40.0137 148 -49.6667 148 -29.5322 c 5
 132 -18.9158 111.064 -11.0234 83.2002 -10.2998 c 4
 56.3421 -9.60235 25.333 -25.334 18.2002 -32.4004 c 5
 18.2002 -205.3 l 6
 18.2002 -250.54 16.9004 -252.1 11.7002 -252.1 c 5
EndSplineSet
EndChar

StartChar: vbase
Encoding: 38 -1 38
Width: 166
VWidth: 2637
Flags: HW
HStem: -409 15 -94 15 221 15 536 15
Fore
154.3 -252.1 m 5
 149.1 -252.1 147.8 -250.54 147.8 -205.3 c 6
 147.8 -32.4004 l 5
 140.667 -25.334 109.658 -9.60254 82.7998 -10.2998 c 4
 54.9365 -11.0234 34 -18.916 18 -29.5322 c 5
 18 -49.667 18.0107 -40.0137 18 -53 c 5
 8.01074 -53.0137 15.667 -53 0 -53 c 5
 0 121 l 6
 0 153.067 26.25 169.1 82.1494 169.1 c 4
 138.05 169.1 166 153.067 166 121 c 6
 166 -231.3 l 6
 166 -243.433 162.1 -250.367 154.3 -252.1 c 5
EndSplineSet
EndChar

StartChar: vlbase
Encoding: 39 -1 39
Width: 166
VWidth: 2637
Flags: HW
HStem: -409 15 -94 15 221 15 536 15
Fore
11.7002 -378.8 m 5
 3.90039 -377.067 0 -370.133 0 -358 c 6
 0 121 l 2
 0 153.067 27.9502 169.1 83.8506 169.1 c 0
 139.75 169.1 166 153.067 166 121 c 2
 166 -53 l 1
 150.333 -53 157.989 -53.0137 148 -53 c 1
 147.989 -40.0137 148 -49.6667 148 -29.5322 c 1
 132 -18.9158 111.064 -11.0234 83.2002 -10.2998 c 0
 56.3421 -9.60235 25.333 -25.334 18.2002 -32.4004 c 1
 18.2002 -332 l 6
 18.2002 -377.24 16.9004 -378.8 11.7002 -378.8 c 5
EndSplineSet
EndChar

StartChar: qbase
Encoding: 40 -1 40
Width: 166
VWidth: 2496
Flags: HW
HStem: -409 15 -94 15 221 15 536 15
Fore
0 -9 m 2
 0 134 l 1
 6.5 109.301 11.7998 82 27.4004 82 c 0
 43 82 46.2002 111.25 48.7998 160 c 1
 59.2002 124.25 66.1328 104.101 85.2002 104.101 c 0
 99.9326 104.101 100.75 146.351 104 175.601 c 1
 108.445 160.192 125.572 140.491 139.482 140.491 c 0
 139.655 140.491 139.828 140.494 140 140.5 c 0
 142.201 140.579 146.436 141.5 148 145.5 c 1
 147.936 159.5 148 154.667 148 170 c 1
 166 170 l 1
 166 31.3008 l 6
 166 13.0195 161.2 -12.8994 150.8 -12.8994 c 0
 139.533 -12.8994 133.851 -4.44922 126.7 17 c 1
 124.101 -10.2998 113.268 -37.5996 96.7998 -37.5996 c 0
 79.4678 -37.5996 69.5 -25.25 55.2002 -1.19922 c 1
 48.7002 -29.1494 40.0332 -51.8994 25.2998 -51.8994 c 0
 7.10059 -51.8994 0 -28.8311 0 -9 c 2
EndSplineSet
EndChar

StartChar: obase
Encoding: 41 -1 41
Width: 166
VWidth: 2537
Flags: HW
HStem: -409 15 -94 15 221 15 536 15
Fore
127.4 112.2 m 0
 135.556 112.2 148 115 148 119.5 c 1
 148 142 148 135 148 159 c 1
 157 159 154.5 159 166 158.899 c 1
 166 6.09961 l 2
 166 -20.4199 158.601 -44.6006 127.4 -44.6006 c 0
 106.336 -44.6006 61.4453 -10.7998 39 -10.7998 c 0
 9.28516 -10.7998 0 -37.4346 0 -62.7998 c 1
 0 94 l 2
 0 132.609 27 137 41 137 c 0
 70 137 106.318 112.2 127.4 112.2 c 0
EndSplineSet
EndChar

StartChar: pbase
Encoding: 42 -1 42
Width: 166
VWidth: 2613
Flags: HW
HStem: -409 15 -94 15 221 15 536 15
Fore
79.2998 -31.2998 m 0
 56.3535 -31.2998 39.9717 -31.5459 28.3018 -31.5459 c 0
 3.54395 -31.5459 0 -30.4355 0 -23.5 c 2
 0 113 l 2
 0 119.067 2.16699 122.101 6.5 122.101 c 2
 10.4004 122.101 l 2
 14.7334 121.233 35.5332 120.8 75.4004 120.8 c 0
 87.8047 120.8 98.5234 120.61 107.668 120.61 c 0
 137.756 120.61 148 123.366 148 141 c 1
 148 150 l 1
 166 150 l 1
 166 -22.2002 l 2
 166 -30.3105 157.757 -31.5137 128.375 -31.5137 c 0
 115.999 -31.5137 99.9414 -31.2998 79.2998 -31.2998 c 0
EndSplineSet
EndChar

StartChar: idebilis
Encoding: 43 -1 43
Width: 83
VWidth: 2605
Flags: HW
HStem: -409 15 -94 15 221 15 536 15
Fore
53.2998 -35.3994 m 4
 23.5117 -35.3994 0 -11.2861 0 14 c 6
 0 101.101 l 5
 10.3994 88.9678 24.667 83 42.8994 82.9004 c 4
 54.0078 82.8398 65 99.333 65 114 c 6
 65 171 l 5
 83 171 l 5
 83 -10.6992 l 6
 83 -25.5195 71.2393 -35.3994 53.2998 -35.3994 c 4
EndSplineSet
EndChar

StartChar: deminutus
Encoding: 44 -1 44
Width: 83
VWidth: 2605
Flags: HW
HStem: -409 15 -94 15 221 15 536 15
Fore
53.2998 -35.3994 m 4
 23.5117 -35.3994 0 -11.2861 0 14 c 6
 0 101.101 l 5
 10.3994 88.9678 24.667 83 42.8994 82.9004 c 4
 54.0078 82.8398 65 99.333 65 114 c 6
 65 171 l 5
 83 171 l 5
 83 -10.6992 l 6
 83 -25.5195 71.2393 -35.3994 53.2998 -35.3994 c 4
EndSplineSet
EndChar

StartChar: rdeminutus
Encoding: 45 -1 45
Width: 83
VWidth: 2605
Flags: HW
HStem: -183.127 15 131.873 15 446.873 15 761.873 15
Fore
53.2998 127.399 m 4
 71.2393 127.399 83 117.52 83 102.699 c 6
 83 -79 l 5
 65 -79 l 5
 65 -22 l 6
 65 -7.33301 54.0078 9.16016 42.8994 9.09961 c 4
 24.667 9 10.3994 3.03223 0 -9.10059 c 5
 0 78 l 6
 0 103.286 23.5117 127.399 53.2998 127.399 c 4
EndSplineSet
EndChar

StartChar: auctusd2
Encoding: 46 -1 46
Width: 166
VWidth: 2689
Flags: HW
HStem: -409 15 -94 15 221 15 536 15
Fore
166.399 -65.7002 m 1
 152.525 -11.9395 69.9131 -2 42.9004 -2 c 0
 33.0892 -2 24.7887 -3.33277 17.9986 -5.99832 c 1
 18 -21 18 -17 18 -31 c 5
 7 -31 10 -31 0 -31 c 1
 0 154 l 2
 0 175.667 11.7002 186.5 35.1006 186.5 c 0
 35.2783 186.5 35.5742 186.502 35.9805 186.502 c 0
 47.0723 186.502 140.456 185.508 166.399 129.3 c 1
 166.399 -65.7002 l 1
EndSplineSet
EndChar

StartChar: auctusa2
Encoding: 47 -1 47
Width: 166
VWidth: 2421
Flags: HW
HStem: -409 15 -94 15 221 15 536 15
Fore
166.4 14.3994 m 1
 139.565 -41.5068 47.1416 -42.8027 36.1143 -42.8027 c 2
 35.1006 -42.8008 l 2
 28.4574 -42.8008 22.7572 -41.8927 18 -40.0765 c 1
 18 -54.5 18 -46 18 -61 c 1
 9 -61 0 -61 0 -61 c 2
 0 165.199 l 1
 6.93359 153.066 21.2334 147 42.9004 147 c 0
 70.9697 147 153.049 157.293 166.4 210.699 c 1
 166.4 14.3994 l 1
EndSplineSet
EndChar

StartChar: porrectus1
Encoding: 48 -1 48
Width: 503
VWidth: 2553
Flags: HW
HStem: -409 15 -94 15 221 15 536 15
Fore
471.85 -201.2 m 4
 315.859 -201.2 150.71 -172.379 0 -40 c 5
 0 157.601 l 5
 47.667 110.8 126.963 58.4531 237.85 0.299805 c 4
 289.005 -26.5283 357 -40.7998 415.75 -40 c 4
 451.28 -39.5166 476.333 -23.5322 485 9.40039 c 5
 485 37.2002 l 5
 503 37.2002 l 5
 503 -183 l 6
 503 -195.133 492.65 -201.2 471.85 -201.2 c 4
EndSplineSet
EndChar

StartChar: porrectus2
Encoding: 49 -1 49
Width: 629
VWidth: 2575
Flags: HW
HStem: -409 15 -94 15 221 15 536 15
Fore
628 -354.1 m 5
 628.006 -361.908 616.933 -373.562 597 -374 c 5
 512.933 -374 412.48 -336.605 295.4 -262.2 c 4
 162.892 -177.99 65 -99.2676 0 -25.5996 c 5
 0 172 l 5
 139.94 -11.6719 354.969 -174.639 540.9 -201.8 c 5
 552.601 -201.8 l 6
 579.468 -201.8 610 -177.6 610 -152.4 c 6
 610 -131.1 l 5
 628 -131.1 l 5
 628 -354.1 l 5
EndSplineSet
EndChar

StartChar: porrectus3
Encoding: 50 -1 50
Width: 628
VWidth: 2556
Flags: HW
HStem: -409 15 -94 15 221 15 536 15
Fore
598 -550.9 m 4
 516.533 -523.167 416.433 -458.601 297.7 -357.2 c 4
 215.367 -288.733 116.133 -183 0 -40 c 5
 0 157.6 l 5
 132.601 -6.2002 233.259 -126.734 305.601 -196.601 c 4
 440 -326.4 542 -374.4 561.7 -374.9 c 4
 582.493 -375.428 610 -360.4 610 -340.3 c 5
 610 -326.4 l 5
 628 -326.4 l 5
 628 -530.101 l 6
 628 -545.698 622.268 -553.5 611 -553.5 c 4
 607.533 -553.5 603.2 -552.633 598 -550.9 c 4
EndSplineSet
EndChar

StartChar: porrectus4
Encoding: 51 -1 51
Width: 628
VWidth: 2500
Flags: HW
HStem: -409 15 -94 15 221 15 536 15
Fore
598 -709.399 m 4
 448.206 -638.618 231.179 -376.498 0 -36 c 5
 0 161.601 l 5
 61.5332 47.2002 162.165 -98.7559 301.601 -276.5 c 4
 392.664 -392.583 455.7 -468.199 538.9 -533.199 c 4
 547.567 -539.267 555.367 -542.3 562.3 -542.3 c 4
 580.5 -542.3 600.467 -537.8 610 -498.8 c 5
 610 -477.399 l 5
 628 -477.399 l 5
 628 -689.899 l 6
 628 -705.495 623.133 -713.3 613.601 -713.3 c 4
 609.268 -713.3 604.067 -712 598 -709.399 c 4
EndSplineSet
EndChar

StartChar: porrectus5
Encoding: 52 -1 52
Width: 931
VWidth: 2048
Flags: HW
HStem: -409 15 -94 15 221 15 536 15
Fore
0 -34 m 5
 0 183 l 6
 0 187.739 5.35547 186.627 7 182.75 c 4
 122.5 -89.5 382.5 -591 909 -711 c 5
 909 -668 909 -654.875 909 -612 c 5
 919.125 -612 926.281 -611.9 931 -612 c 5
 931 -841 l 6
 931 -843.229 930.646 -842.992 928.76 -842.591 c 5
 351 -717 54 -249 0 -34 c 5
EndSplineSet
EndChar

StartChar: porrectusflexus1
Encoding: 53 -1 53
Width: 503
VWidth: 2553
Flags: HW
HStem: -409 15 -94 15 221 15 536 15
Fore
471.85 -201.2 m 0
 315.859 -201.2 150.71 -172.379 0 -40 c 1
 0 157.601 l 1
 47.667 110.8 126.963 58.4531 237.85 0.299805 c 0
 289.005 -26.5283 356.667 -39.2002 415.417 -38.4004 c 0
 450.947 -37.917 467.667 -36.3333 484.667 -34.6553 c 5
 484.667 38.7998 l 1
 502.667 38.7998 l 1
 503 -183 l 2
 503.019 -195.133 492.65 -201.2 471.85 -201.2 c 0
EndSplineSet
EndChar

StartChar: porrectusflexus2
Encoding: 54 -1 54
Width: 629
VWidth: 2575
Flags: HW
HStem: -409 15 -94 15 221 15 536 15
Fore
610.001 -195.499 m 5
 610 -131.1 l 1
 628 -131.1 l 1
 628 -354.1 l 1
 628.006 -361.908 616.933 -373.562 597 -374 c 1
 512.933 -374 412.48 -336.605 295.4 -262.2 c 0
 162.892 -177.99 65 -99.2676 0 -25.5996 c 1
 0 172 l 1
 139.94 -11.6719 354.969 -174.639 540.9 -201.8 c 1
 540.9 -201.8 611.667 -215 610.001 -195.499 c 5
EndSplineSet
EndChar

StartChar: porrectusflexus3
Encoding: 55 -1 55
Width: 628
VWidth: 2556
Flags: HW
HStem: -409 15 -94 15 221 15 536 15
Fore
598 -541.9 m 0
 516.533 -514.167 416.433 -458.601 297.7 -357.2 c 0
 215.367 -288.733 116.133 -183 0 -40 c 1
 0 157.6 l 1
 132.601 -6.2002 233.259 -126.734 305.601 -196.601 c 0
 440 -326.4 542.25 -371.5 561.7 -374.9 c 5
 607.5 -384 610 -375.333 610 -363.316 c 5
 610 -326.4 l 1
 628 -326.4 l 1
 628 -521.101 l 2
 628 -536.698 622.268 -544.5 611 -544.5 c 0
 607.533 -544.5 603.2 -543.633 598 -541.9 c 0
EndSplineSet
EndChar

StartChar: porrectusflexus4
Encoding: 56 -1 56
Width: 628
VWidth: 2500
Flags: HW
HStem: -409 15 -94 15 221 15 536 15
Fore
609.75 -557 m 5
 610 -477.399 l 1
 628 -477.399 l 1
 628 -679.899 l 2
 628 -695.495 623.133 -703.3 613.601 -703.3 c 0
 609.268 -703.3 604.067 -702 598 -699.399 c 0
 448.206 -628.618 231.179 -376.498 0 -36 c 1
 0 161.601 l 1
 61.5332 47.2002 162.165 -98.7559 301.601 -276.5 c 0
 392.664 -392.583 450 -462 538.9 -533.199 c 0
 561.555 -551.343 587.25 -555 609.75 -557 c 5
EndSplineSet
EndChar

StartChar: porrectusflexus5
Encoding: 57 -1 57
Width: 931
VWidth: 2048
Flags: HW
HStem: -409 15 -94 15 221 15 536 15
Fore
0 -34 m 5
 0 183 l 6
 0 187.739 5.35547 186.627 7 182.75 c 4
 122.5 -89.5 382.5 -591 909 -711 c 5
 909 -668 909 -654.875 909 -612 c 5
 919.125 -612 926.281 -611.9 931 -612 c 5
 931 -841 l 6
 931 -843.229 930.646 -842.992 928.76 -842.591 c 5
 351 -717 54 -249 0 -34 c 5
EndSplineSet
EndChar

StartChar: _1025
Encoding: 58 -1 58
Width: 166
VWidth: 2048
Flags: HW
HStem: -409 15 -94 15 221 15 536 15
Fore
0 -9 m 2xc0
 0 124 l 1
 6.5 99.3008 11.7998 72 27.4004 72 c 0
 43 72 46.2002 101.25 48.7998 150 c 1
 59.2002 114.25 66.1328 94.1006 85.2002 94.1006 c 0
 99.9326 94.1006 100.75 133.75 104 163 c 5
 108.445 147.591 125.572 130.491 139.482 130.491 c 0
 141.91 130.491 143.755 131.116 145.118 132.012 c 1
 138.649 151.965 121.009 177.8 89.3994 177.8 c 0
 59.0674 177.8 33.9326 170.867 14 157 c 1
 14 283.1 l 2
 14 316.032 39.1328 332.5 89.3994 332.5 c 0
 122.55 332.5 166 322.619 166 283.1 c 2
 166 31.3008 l 2xd0
 166 13.0195 161.2 -12.8994 150.8 -12.8994 c 0
 139.533 -12.8994 133.851 -4.44922 126.7 17 c 1
 124.101 -10.2998 113.268 -37.5996 96.7998 -37.5996 c 0
 79.4678 -37.5996 69.5 -25.25 55.2002 -1.19922 c 1xc0
 48.7002 -29.1494 40.0332 -51.8994 25.2998 -51.8994 c 0
 7.10059 -51.8994 0 -28.8311 0 -9 c 2xc0
EndSplineSet
EndChar

StartChar: _0021
Encoding: 59 -1 59
Width: 164
VWidth: 2048
Flags: HW
Validated: 33
HStem: -409 15 -94 15 221 15 536 15
Fore
58.5 163.504 m 1
 110.666 123.337 151 86.3333 163.999 69.0176 c 1
 158.667 42.6667 117.333 0 90.0186 -22.6611 c 0
 78.4298 -32.2755 38.0059 -60.667 8.66699 -62.0029 c 1
 -6.66113 -58.667 0.00585938 -55.334 9.33105 -49.335 c 1
 52.0059 -36.001 71.3311 -2.99414 70.6709 3.33008 c 1
 62.3311 15.3389 26.666 40.6729 0 56.6709 c 5
 5.66699 68.5049 51.333 146.337 58.5 163.504 c 1
EndSplineSet
EndChar

StartChar: _0031
Encoding: 60 -1 60
Width: 164
VWidth: 2048
Flags: HW
Validated: 33
HStem: -409 15 -94 15 221 15 536 15
Fore
77.5 192 m 1
 90.333 178.167 148 106 164 87 c 1
 142.8 49.6 127.217 15.1973 91.6094 -20.3965 c 1
 77.2168 -37.6035 28.8 -49.6 9.99512 -48.666 c 1
 3.34201 -48.503 -3.69077 -48.4444 5.19531 -43.999 c 1
 25.9062 -32.6585 52.7103 -24.447 59.5815 -6 c 1
 35.0878 20.9024 7.55616 58.5906 0 80 c 5
 6.66699 103.833 62.873 177.667 77.5 192 c 1
EndSplineSet
EndChar

StartChar: _0022
Encoding: 61 -1 61
Width: 166
VWidth: 2613
Flags: HW
HStem: -409 15 -94 15 221 15 536 15
Fore
154.7 -373.3 m 5
 149.5 -373.3 148.2 -371.74 148.2 -326.5 c 6
 148.2 -31.3994 l 5
 131.733 -16.667 110.067 -9.2998 83.2002 -9.2998 c 4
 44.2002 -9.2998 17.333 -17.9668 0 -35.2998 c 5
 0 122 l 6
 0 154.067 26.6504 170.1 82.5498 170.1 c 4
 138.45 170.1 166.4 154.067 166.4 122 c 6
 166.4 -352.5 l 6
 166.4 -363.767 162.5 -370.7 154.7 -373.3 c 5
EndSplineSet
EndChar

StartChar: _0014
Encoding: 62 -1 62
Width: 71
VWidth: 2679
Flags: HW
HStem: -219.133 9 -30.1332 9 158.867 9 347.867 9
Fore
35.5 47.75 m 4
 17.4814 47.75 -0.25 62.8789 -0.25 83.5 c 4
 -0.25 104.155 17.4727 119.25 35.5 119.25 c 4
 53.5186 119.25 71.25 104.121 71.25 83.5 c 4
 71.25 62.8447 53.5273 47.75 35.5 47.75 c 4
EndSplineSet
EndChar

StartChar: _0015
Encoding: 63 -1 63
Width: 71
VWidth: 2679
Flags: HW
HStem: -409 15 -94 15 221 15 536 15
Fore
35.75 16.25 m 4
 17.7314 16.25 0 31.3789 0 52 c 4
 0 72.6553 17.7227 87.75 35.75 87.75 c 4
 53.7686 87.75 71.5 72.6211 71.5 52 c 4
 71.5 31.3447 53.7773 16.25 35.75 16.25 c 4
35.75 346.25 m 0
 17.7314 346.25 0 361.379 0 382 c 0
 0 402.655 17.7227 417.75 35.75 417.75 c 0
 53.7686 417.75 71.5 402.621 71.5 382 c 0
 71.5 361.345 53.7773 346.25 35.75 346.25 c 0
EndSplineSet
EndChar

StartChar: _0033
Encoding: 64 -1 64
Width: 40
VWidth: 2048
Flags: HW
HStem: -409 15 -94 15 221 15 536 15
Fore
0 96.75 m 17
 2.5 100.625 6.62012 104 20 104 c 4
 32.625 104 37.5 100.125 40 96.75 c 13
 40 -20.625 l 17
 36.875 -25.25 31.874 -27.874 20 -28 c 0
 8.25 -28.125 3.875 -25.625 0 -20.625 c 9
 0 96.75 l 17
EndSplineSet
EndChar

StartChar: _0013
Encoding: 65 -1 65
Width: 110
VWidth: 2048
Flags: HW
Validated: 33
HStem: -409 15 -94 15 221 15 536 15
Fore
110 119 m 1
 110 16 l 1
 100 24.3333 82.6665 27.9905 55.667 28.335 c 0
 29.6667 28.6667 7 24 0 16 c 1
 0 119 l 17
 10 124 32.5 127 54.0039 127 c 4
 73.184 127 98.5 125.75 110 119 c 1
EndSplineSet
EndChar

StartChar: hepisemus_base
Encoding: 66 -1 66
Width: 1
VWidth: 2048
Flags: HW
HStem: -409 15 -94 15 221 15 536 15
Fore
0 64 m 25
 0 96 l 25
 1 96 l 29
 1 64 l 25
 0 64 l 25
EndSplineSet
EndChar

StartChar: _0062
Encoding: 67 -1 67
Width: 85
VWidth: 2048
Flags: HW
HStem: 854.5 15 539.5 15 224.5 15 -90.5 15
Fore
63 412.5 m 5
 63 412.5 85 405.5 85 400.5 c 6
 85 -36 l 1
 78 -52.5 -0.329102 -8.0752 0 10.5 c 1
 0.279297 20.5 0 160.5 3 170.5 c 1
 25 160.5 59 129.5 63 140 c 1
 63 412.5 l 5
EndSplineSet
EndChar

StartChar: _0065
Encoding: 68 -1 68
Width: 85
VWidth: 2048
Flags: HW
Validated: 33
HStem: -409 15 -94 15 221 15 536 15
Fore
63 -270 m 5
 63 -7 l 1
 59 3.5 25 -27.5 3 -37.5 c 1
 0 -27.5 0.279297 112.5 0 122.5 c 1
 -0.329102 141.075 78 185.5 85 169 c 1
 85 -258 l 6
 85 -263 63 -270 63 -270 c 5
EndSplineSet
EndChar

StartChar: _0039
Encoding: 69 -1 69
Width: 99
VWidth: 1594
Flags: W
Validated: 1
HStem: -652.764 23.94 -150.024 23.94 352.716 23.94 855.456 23.94
Fore
22.3555 -69.8779 m 4
 9.58691 -69.8779 0.0117188 -57.1094 0.0117188 -45.9365 c 4
 0.0117188 -42.7461 0.0117188 -37.958 3.2041 -34.7656 c 5
 46.2949 56.207 l 6
 51.083 64.1865 60.6602 70.5713 71.8311 70.5713 c 4
 87.792 70.5713 98.9629 56.207 98.9629 41.8418 c 4
 98.9629 37.0547 98.9629 32.2666 95.7705 29.0742 c 5
 43.1035 -57.1094 l 5
 39.9111 -65.0898 31.9316 -69.8779 22.3555 -69.8779 c 4
EndSplineSet
EndChar

StartChar: _0069
Encoding: 70 -1 70
Width: 99
VWidth: 1594
Flags: W
Validated: 1
HStem: -652.764 23.94 -150.024 23.94 352.716 23.94 855.456 23.94
Fore
0.0595703 46.2236 m 4
 0.0595703 57.3965 9.63477 70.165 22.4033 70.165 c 4
 31.9795 70.165 39.959 65.377 43.1514 57.3965 c 5
 95.8184 -28.7871 l 5
 99.0107 -31.9795 99.0107 -36.7676 99.0107 -41.5547 c 4
 99.0107 -55.9199 87.8398 -70.2842 71.8789 -70.2842 c 4
 60.708 -70.2842 51.1309 -63.8994 46.3428 -55.9199 c 6
 3.25195 35.0527 l 5
 0.0595703 38.2451 0.0595703 43.0332 0.0595703 46.2236 c 4
EndSplineSet
EndChar

StartChar: _0070
Encoding: 71 -1 71
Width: 125
VWidth: 1583
Flags: W
Validated: 1
HStem: -664.386 23.94 -161.646 23.94 341.094 23.94 843.834 23.94
Fore
95.7607 -11.6357 m 1
 95.7607 7.51758 81.3955 21.8809 62.2441 21.8809 c 0
 43.0928 21.8809 28.7275 7.51758 28.7275 -11.6357 c 1
 0 -11.6357 l 1
 0 23.4766 27.1318 50.6104 62.2441 50.6104 c 0
 97.3564 50.6104 124.488 23.4766 124.488 -11.6357 c 1
 95.7607 -11.6357 l 1
EndSplineSet
EndChar

StartChar: _0038
Encoding: 72 -1 72
Width: 124
VWidth: 1606
Flags: W
Validated: 1
HStem: -641.142 23.94 -138.402 23.94 364.338 23.94 867.078 23.94
Fore
95.5166 11.623 m 1
 124.244 11.623 l 1
 124.244 -23.4893 97.1123 -50.623 62 -50.623 c 0
 26.8877 -50.623 -0.244141 -23.4893 -0.244141 11.623 c 1
 28.4834 11.623 l 1
 28.4834 -7.53027 42.8486 -21.8936 62 -21.8936 c 0
 81.1514 -21.8936 95.5166 -7.53027 95.5166 11.623 c 1
EndSplineSet
EndChar

StartChar: _0037
Encoding: 73 -1 73
Width: 124
VWidth: 1594
Flags: W
Validated: 1
HStem: -652.764 23.94 -150.024 23.94 352.716 23.94 855.456 23.94
Fore
62 -33.5166 m 0
 79.5557 -33.5166 95.5166 -19.1514 95.5166 0 c 0
 95.5166 17.5557 81.1514 33.5166 62 33.5166 c 0
 44.4443 33.5166 28.4834 19.1514 28.4834 0 c 0
 28.4834 -17.5557 42.8486 -33.5166 62 -33.5166 c 0
62 62.2441 m 0
 95.5166 62.2441 124.244 36.708 124.244 0 c 0
 124.244 -33.5166 98.708 -62.2441 62 -62.2441 c 0
 28.4834 -62.2441 -0.244141 -36.708 -0.244141 0 c 0
 -0.244141 33.5166 25.292 62.2441 62 62.2441 c 0
EndSplineSet
EndChar

StartChar: _0003
Encoding: 74 -1 74
Width: 166
VWidth: 2575
Flags: HW
HStem: -409 15 -94 15 221 15 536 15
Fore
107.7 -47.5996 m 4
 42.96 -47.5996 -0.200195 -2.36035 -0.200195 65.5 c 6
 -0.200195 391.8 l 6
 -0.200195 460.022 42.6357 503.6 107.7 503.6 c 4
 154.5 503.6 166.2 469.28 166.2 446.4 c 6
 166.2 267 l 5
 155.8 276.1 l 6
 138.854 290.928 110.484 304.7 81.7002 304.7 c 4
 42.8398 304.7 10.2002 272.13 10.2002 229.3 c 4
 10.2002 186.519 42.9111 152.6 81.7002 152.6 c 4
 111.34 152.6 139.125 165.308 155.8 179.9 c 6
 166.2 190.3 l 5
 166.2 9.59961 l 6
 166.2 -24.7207 142.8 -47.5996 107.7 -47.5996 c 4
EndSplineSet
EndChar

StartChar: _0004
Encoding: 75 -1 75
Width: 322
VWidth: 2503
Flags: HW
HStem: -409 15 -94 15 221 15 536 15
Fore
267.601 -30.1504 m 4
 205.549 -30.1504 163.599 14.084 163.599 79.0498 c 6
 163.599 387.15 l 6
 163.599 452.277 205.545 495.05 267.599 495.05 c 4
 302.821 495.05 322.199 475.54 322.199 441.75 c 6
 322.199 270.15 l 5
 305.912 284.109 282.367 305.25 244.2 305.25 c 4
 202.08 305.25 174 271.645 174 234.4 c 4
 174 196.425 201.877 160.95 244.2 160.95 c 4
 291.262 160.95 322.192 196.046 322.2 196.05 c 5
 322.2 24.4502 l 6
 322.2 -8.61035 301.437 -30.1504 267.601 -30.1504 c 4
133.699 -60.0498 m 4
 129.799 -60.0498 127.199 -58.6201 127.199 -49.6504 c 6
 127.199 140.15 l 5
 113.332 154.018 94.2656 160.95 69.999 160.95 c 4
 40.5322 160.95 17.1318 154.45 -0.201172 141.45 c 5
 -0.201172 287.05 l 6
 -0.201172 317.383 23.416 332.55 70.6484 332.55 c 4
 117.882 332.55 141.499 317.383 141.499 287.05 c 6
 141.499 -35.3496 l 6
 141.499 -50.9502 138.898 -59.1826 133.699 -60.0498 c 4
EndSplineSet
EndChar

StartChar: _0016
Encoding: 76 -1 76
Width: 108
VWidth: 2048
Flags: W
Validated: 33
HStem: -409 15 -94 15 221 15 536 15
Fore
0 -14 m 9
 37 76 l 17
 40.6667 82.3333 45.2422 87.001 54.0029 87 c 0
 63 86.999 68 82 71 76 c 13
 108 -16 l 17
 108 -21.1426 103.333 -22.333 99.002 -23.5 c 0
 90.8721 -25.6895 82.8571 -23.1429 80 -18 c 9
 54 40.999 l 25
 54 40.999 30.6667 -12 28 -18 c 1
 23.166 -24.5 16.5 -25.5 9 -23.5 c 0
 4.59668 -22.3252 0 -18.6667 0 -14 c 9
EndSplineSet
EndChar

StartChar: _0034
Encoding: 77 -1 77
Width: 166
VWidth: 2612
Flags: HW
HStem: 517 15 202 15 -113 15 -428 15
Fore
83 229.4 m 4
 51.9922 229.4 24.5 203.92 24.5 168.95 c 4
 24.5 134.044 51.9893 107.2 83 107.2 c 4
 119.66 107.2 144.1 136.482 144.1 168.95 c 4
 144.1 202.178 119.58 229.4 83 229.4 c 4
82.3496 269.7 m 4
 138.25 269.7 166.2 253.667 166.2 221.6 c 6
 166.2 64.2998 l 5
 148 82.5 120.268 91.5996 83 91.5996 c 4
 44.8672 91.5996 18 82.5 -0.200195 64.2998 c 5
 -0.200195 221.6 l 6
 -0.200195 253.667 26.4502 269.7 82.3496 269.7 c 4
EndSplineSet
EndChar

StartChar: _0035
Encoding: 78 -1 78
Width: 266
VWidth: 2048
Flags: HW
HStem: -409 15 -94 15 221 15 536 15
Fore
132.35 190.101 m 4
 188.25 190.101 216 174.067 216 142 c 6
 216 -15.2998 l 5
 197.8 2.90039 170.268 12 133 12 c 4
 94.8672 12 68.2002 2.90039 50 -15.2998 c 5
 50 142 l 6
 50 174.067 76.4502 190.101 132.35 190.101 c 4
266.006 -10.6602 m 6
 266.006 -16.3604 258.371 -20.6602 252.672 -20.6602 c 4
 246.972 -20.6602 240.672 -14.7061 240.672 -9.00586 c 6
 240.818 170.681 l 6
 240.818 176.381 247.639 181.341 253.339 181.341 c 4
 259.038 181.341 265.913 174.727 265.913 169.026 c 6
 266.006 -10.6602 l 6
25.334 -9.33398 m 6
 25.334 -15.0342 17.6992 -19.334 12 -19.334 c 4
 6.2998 -19.334 0 -13.3799 0 -7.67969 c 6
 0.146484 172.007 l 6
 0.146484 177.707 6.9668 182.667 12.667 182.667 c 4
 18.3662 182.667 25.2412 176.053 25.2412 170.353 c 6
 25.334 -9.33398 l 6
EndSplineSet
EndChar

StartChar: _0036
Encoding: 79 -1 79
Width: 266
VWidth: 2048
Flags: HW
HStem: -409 15 -94 15 221 15 536 15
Fore
134 150 m 4
 102.992 150 75.5 124.52 75.5 89.5498 c 4
 75.5 54.6436 102.989 27.7998 134 27.7998 c 4
 170.66 27.7998 195.1 57.082 195.1 89.5498 c 4
 195.1 122.777 170.58 150 134 150 c 4
133.35 190.3 m 4
 189.25 190.3 217.2 174.267 217.2 142.199 c 6
 217.2 -15.1006 l 5
 199 3.09961 171.268 12.1992 134 12.1992 c 4
 95.8672 12.1992 69 3.09961 50.7998 -15.1006 c 5
 50.7998 142.199 l 6
 50.7998 174.267 77.4502 190.3 133.35 190.3 c 4
266.006 -10.6602 m 6
 266.006 -16.3604 258.371 -20.6602 252.672 -20.6602 c 4
 246.972 -20.6602 240.672 -14.7061 240.672 -9.00586 c 6
 240.818 170.681 l 6
 240.818 176.381 247.639 181.341 253.339 181.341 c 4
 259.038 181.341 265.913 174.727 265.913 169.026 c 6
 266.006 -10.6602 l 6
25.334 -9.33398 m 6
 25.334 -15.0342 17.6992 -19.334 12 -19.334 c 4
 6.2998 -19.334 0 -13.3799 0 -7.67969 c 6
 0.146484 172.007 l 6
 0.146484 177.707 6.9668 182.667 12.667 182.667 c 4
 18.3662 182.667 25.2412 176.053 25.2412 170.353 c 6
 25.334 -9.33398 l 6
EndSplineSet
EndChar

StartChar: _0066
Encoding: 80 -1 80
Width: 706
VWidth: 2048
Flags: HW
Validated: 33
HStem: -409 15 -94 15 221 15 536 15
Fore
206.925 -69.6523 m 0
 161.616 -52.828 204.018 61.5556 278.334 216 c 1
 199 216 l 1
 153 99 l 2
 148 86 141.273 66.9969 141 55 c 0
 140.5 33 135 17.5 156.5 14.5 c 1
 164.402 11.6777 161.846 5.29199 162.5 0 c 1
 15 0 l 1
 13.9604 4.33336 12.9571 8.66665 16 13 c 1
 64 15 76.7685 36.0978 139 183 c 2
 347 674 l 2
 351.75 684.75 361 685.25 367 674 c 2
 433.766 521.699 l 1
 473.572 604.556 505.803 684.391 520.25 761.5 c 0
 522.627 774.187 482.324 770.2 462.25 777.5 c 0
 440.25 785.5 434.25 795.5 434.25 819.5 c 0
 434.25 837.617 438.25 861.5 470.25 867.5 c 0
 489.027 871.021 521.518 859.958 534.25 845.5 c 0
 593.773 777.906 537.503 625.969 457.881 466.689 c 1
 616 106 l 2
 651 32 655.5 17.5 700.5 14.5 c 1
 705.99 10.6148 705.38 5.14805 706 0 c 1
 451 0 l 1
 451.189 5 449.733 10 455 15 c 1
 508 16 521 28 521 53 c 0
 521 67 514 93 502 120 c 2
 461 216 l 1
 323.905 216 l 1
 289.063 151.294 259.44 93.3475 243.25 49 c 0
 220.25 -14 230.5 -14.074 252.251 -24.665 c 0
 277.583 -36.9998 331.25 -47.667 326.91 -59.9971 c 1
 293.25 -90.333 224.917 -76.333 206.925 -69.6523 c 0
402.965 361.394 m 1
 346.145 257 l 1
 447 257 l 1
 402.965 361.394 l 1
380.198 415.368 m 1
 331 532 l 1
 216 257 l 1
 298.447 257 l 1
 380.198 415.368 l 1
EndSplineSet
EndChar

StartChar: _0067
Encoding: 81 -1 81
Width: 659
VWidth: 2048
Flags: HW
Validated: 33
HStem: -409 15 -94 15 221 15 536 15
Fore
204 343 m 1
 352 346 438 371 438 488 c 0
 438 582 380 625 255 625 c 0
 215 625 204 617 204 589 c 2
 204 343 l 1
448.323 64.2877 m 1
 380.187 -75.4231 404.904 -72.5686 425.326 -82.5127 c 0
 450.658 -94.8475 504.325 -105.515 499.985 -117.845 c 1
 466.325 -148.181 397.992 -134.181 380 -127.5 c 0
 354.766 -118.13 358.402 -71.1455 370.575 -35.3477 c 0
 385.847 9.56305 403.686 53.6783 423.023 97.0292 c 1
 260 308 l 1
 204 306 l 1
 204 109 l 2
 204 37 217 24 294 19 c 1
 294 0 l 1
 17 0 l 1
 17 19 l 1
 92 25 102 37 102 120 c 2
 102 553 l 2
 102 624 92 635 17 643 c 1
 17 662 l 1
 293 662 l 2
 391 662 547 636 547 486 c 0
 547 348 407 327 366 319 c 1
 468.51 193.102 l 1
 559.578 376.411 663.74 545.749 693.325 703.652 c 0
 695.702 716.339 655.399 712.353 635.325 719.652 c 0
 613.325 727.652 607.325 737.652 607.325 761.652 c 0
 607.325 833.514 687.368 810.316 707.325 787.652 c 0
 798.767 683.811 616.932 380.917 496.975 158.143 c 1
 572 66 l 2
 601 32 621 22 659 19 c 1
 659 0 l 1
 498 0 l 1
 448.323 64.2877 l 1
EndSplineSet
EndChar

StartChar: _0068
Encoding: 82 -1 82
Width: 697
VWidth: 2048
Flags: HW
Validated: 33
HStem: -409 15 -94 15 221 15 536 15
Fore
106.675 -75.1523 m 0
 81.4404 -65.7822 85.0773 -18.7979 97.25 17 c 0
 131.323 117.203 178.181 213.446 225.923 306.074 c 1
 122 538 l 2
 81.7268 627.878 70.999 645.667 21.999 647.667 c 1
 15.9766 649.238 16.0303 656.23 16 662 c 1
 255 662 l 1
 254.808 657.354 256.182 652.474 250.337 648.667 c 1
 237 648 221.674 643.333 217.674 641.333 c 0
 208.312 636.651 207 629 207 610 c 0
 207 595 215.323 572.145 248 499 c 2
 284.176 418.022 l 1
 345.526 536.473 399.928 648.868 420 756 c 0
 422.377 768.687 382.074 764.7 362 772 c 0
 340 780 334 790 334 814 c 0
 334 885.868 414.048 862.658 434 840 c 0
 505.439 758.874 410.082 556.255 307.746 365.265 c 1
 399 161 l 1
 546 528 l 2
 558 558 565 585 565 601 c 0
 565 629 547 640 492 643 c 1
 492 662 l 1
 697 662 l 1
 697 643 l 1
 649 640 637 630 605 550 c 2
 383 -11 l 1
 368 -11 l 1
 248.356 256.011 l 1
 203.109 173.094 162.904 98.0199 143 43.5 c 0
 120 -19.5 130.25 -19.5741 152.001 -30.165 c 0
 177.333 -42.4998 231 -53.167 226.66 -65.4971 c 1
 193 -95.833 124.667 -81.833 106.675 -75.1523 c 0
EndSplineSet
EndChar

StartChar: letterbar
Encoding: 83 -1 83
Width: 388
VWidth: 2048
Flags: HW
Validated: 33
HStem: -409 15 -94 15 221 15 536 15
Fore
20.6748 -70.1523 m 0
 -4.55957 -60.7822 -0.922852 -13.7979 11.25 22 c 0
 104.25 295.5 292.5 539.5 334 761 c 0
 336.377 773.687 296.074 769.7 276 777 c 0
 254 785 248 795 248 819 c 0
 248 837.117 252 861 284 867 c 0
 302.777 870.521 335.269 859.458 348 845 c 0
 466 711 128.932 245.53 57 48.5 c 0
 34 -14.5 44.25 -14.5742 66.001 -25.165 c 0
 91.333 -37.5 145 -48.167 140.66 -60.4971 c 1
 107 -90.833 38.667 -76.833 20.6748 -70.1523 c 0
EndSplineSet
EndChar

StartChar: phigh
Encoding: 84 -1 84
Width: 152
VWidth: 2537
Flags: HW
HStem: -409 15 -94 15 221 15 536 15
Fore
134 -33.8008 m 5
 134 -6 116.521 20.7998 75.3994 20.7998 c 4
 45.0674 20.7998 19.9326 13.8672 0 0 c 5
 0 126.1 l 6
 0 159.032 25.1328 175.5 75.3994 175.5 c 4
 108.55 175.5 152 165.619 152 126.1 c 6
 152 -33.8008 l 5
 134 -33.8008 l 5
EndSplineSet
EndChar

StartChar: hepisemusleft
Encoding: 85 -1 85
Width: 1
VWidth: 2048
Flags: HW
HStem: -409 15 -94 15 221 15 536 15
Fore
-2 64 m 29
 0 91 l 29
 1 91 l 29
 1 64 l 29
 -2 64 l 29
EndSplineSet
EndChar

StartChar: hepisemusright
Encoding: 86 -1 86
Width: 2
VWidth: 2048
Flags: HW
HStem: -409 15 -94 15 221 15 536 15
Fore
0 64 m 25
 -1 64 l 25
 -1 91 l 25
 2 91 l 25
 0 64 l 25
EndSplineSet
EndChar

